<svg xmlns="http://www.w3.org/2000/svg" xmlns:xlink="http://www.w3.org/1999/xlink" viewBox="0 0 40.01 34.33">
  <defs>
    <style>
      .cls-1, .cls-2 {
        fill: none;
        stroke-miterlimit: 10;
        stroke-width: 1.23px;
      }

      .cls-1 {
        stroke: #7a9779;
      }

      .cls-2 {
        stroke: #b2c1a1;
      }

      .cls-3 {
        clip-path: url(#clip-path);
      }

      .cls-4 {
        clip-path: url(#clip-path-2);
      }
    </style>
    <clipPath id="clip-path" transform="translate(5.52)">
      <path class="cls-1" d="M1.23,15.16H28.14L27,28.32c-.27,3.08-2.19,5.4-4.48,5.4H7.44c-2.07,0-3.85-2-4.24-4.74Z"/>
    </clipPath>
    <clipPath id="clip-path-2" transform="translate(5.52)">
      <path class="cls-2" d="M.71,15.16h26.9L26.49,28.32c-.26,3.08-2.19,5.4-4.48,5.4H6.91c-2.07,0-3.85-2-4.24-4.74Z"/>
    </clipPath>
  </defs>
  <title>cart</title>
  <g id="Layer_2" data-name="Layer 2">
    <g id="Layer_1-2" data-name="Layer 1">
      <g>
        <g>
          <g>
            <g class="cls-3">
              <g>
                <line class="cls-1" x1="1.03" y1="33.68" x2="14.19" y2="15.09"/>
                <line class="cls-1" x1="5.78" y1="33.68" x2="18.94" y2="15.09"/>
                <line class="cls-1" x1="10.52" y1="33.68" x2="23.69" y2="15.09"/>
                <line class="cls-1" x1="15.27" y1="33.68" x2="28.43" y2="15.09"/>
                <line class="cls-1" x1="20.02" y1="33.68" x2="33.18" y2="15.09"/>
                <line class="cls-1" x1="24.77" y1="33.68" x2="37.93" y2="15.09"/>
              </g>
              <g>
                <line class="cls-1" x1="39.51" y1="33.68" x2="26.35" y2="15.09"/>
                <line class="cls-1" x1="34.76" y1="33.68" x2="21.6" y2="15.09"/>
                <line class="cls-1" x1="30.02" y1="33.68" x2="16.85" y2="15.09"/>
                <line class="cls-1" x1="25.27" y1="33.68" x2="12.11" y2="15.09"/>
                <line class="cls-1" x1="20.52" y1="33.68" x2="7.36" y2="15.09"/>
                <line class="cls-1" x1="15.77" y1="33.68" x2="2.61" y2="15.09"/>
              </g>
            </g>
            <path class="cls-1" d="M1.23,15.16H28.14L27,28.32c-.27,3.08-2.19,5.4-4.48,5.4H7.44c-2.07,0-3.85-2-4.24-4.74Z" transform="translate(5.52)"/>
          </g>
          <path class="cls-1" d="M1.23,15.16H28.14L27,28.32c-.27,3.08-2.19,5.4-4.48,5.4H7.44c-2.07,0-3.85-2-4.24-4.74Z" transform="translate(5.52)"/>
          <path class="cls-1" d="M3.08,14.8c.53-18.56,23.74-19.27,23.74,0" transform="translate(5.52)"/>
        </g>
        <g>
          <g>
            <g class="cls-4">
              <g>
                <line class="cls-2" x1="0.5" y1="33.68" x2="13.66" y2="15.09"/>
                <line class="cls-2" x1="5.25" y1="33.68" x2="18.41" y2="15.09"/>
                <line class="cls-2" x1="10" y1="33.68" x2="23.16" y2="15.09"/>
                <line class="cls-2" x1="14.74" y1="33.68" x2="27.91" y2="15.09"/>
                <line class="cls-2" x1="19.49" y1="33.68" x2="32.65" y2="15.09"/>
                <line class="cls-2" x1="24.24" y1="33.68" x2="37.4" y2="15.09"/>
              </g>
              <g>
                <line class="cls-2" x1="38.98" y1="33.68" x2="25.82" y2="15.09"/>
                <line class="cls-2" x1="34.24" y1="33.68" x2="21.07" y2="15.09"/>
                <line class="cls-2" x1="29.49" y1="33.68" x2="16.33" y2="15.09"/>
                <line class="cls-2" x1="24.74" y1="33.68" x2="11.58" y2="15.09"/>
                <line class="cls-2" x1="19.99" y1="33.68" x2="6.83" y2="15.09"/>
                <line class="cls-2" x1="15.25" y1="33.68" x2="2.08" y2="15.09"/>
              </g>
            </g>
            <path class="cls-2" d="M.71,15.16h26.9L26.49,28.32c-.26,3.08-2.19,5.4-4.48,5.4H6.91c-2.07,0-3.85-2-4.24-4.74Z" transform="translate(5.52)"/>
          </g>
          <path class="cls-2" d="M.71,15.16h26.9L26.49,28.32c-.26,3.08-2.19,5.4-4.48,5.4H6.91c-2.07,0-3.85-2-4.24-4.74Z" transform="translate(5.52)"/>
          <path class="cls-2" d="M2.55,14.8c.53-18.56,23.74-19.27,23.74,0" transform="translate(5.52)"/>
        </g>
      </g>
    </g>
  </g>
</svg>
