<svg xmlns="http://www.w3.org/2000/svg" viewBox="0 0 773.69 415.02">
  <defs>
    <style>
      .cls-1 {
        fill: #806757;
      }

      .cls-1, .cls-12, .cls-13, .cls-14, .cls-15, .cls-17, .cls-19, .cls-2, .cls-20, .cls-21, .cls-23, .cls-24, .cls-25, .cls-26, .cls-27, .cls-28, .cls-29, .cls-31, .cls-32, .cls-33, .cls-36, .cls-39, .cls-40, .cls-41, .cls-42, .cls-43, .cls-47, .cls-48, .cls-5, .cls-50, .cls-53, .cls-54, .cls-55, .cls-56, .cls-57, .cls-58, .cls-59, .cls-6, .cls-60, .cls-61, .cls-62, .cls-63, .cls-64, .cls-65, .cls-67, .cls-68, .cls-8, .cls-9 {
        stroke: #000;
      }

      .cls-1, .cls-10, .cls-11, .cls-12, .cls-13, .cls-14, .cls-15, .cls-16, .cls-17, .cls-19, .cls-2, .cls-20, .cls-21, .cls-22, .cls-23, .cls-24, .cls-25, .cls-26, .cls-27, .cls-28, .cls-29, .cls-3, .cls-30, .cls-31, .cls-32, .cls-33, .cls-34, .cls-35, .cls-36, .cls-39, .cls-40, .cls-41, .cls-42, .cls-43, .cls-44, .cls-45, .cls-46, .cls-47, .cls-48, .cls-49, .cls-5, .cls-50, .cls-51, .cls-52, .cls-53, .cls-54, .cls-55, .cls-56, .cls-57, .cls-58, .cls-59, .cls-6, .cls-60, .cls-61, .cls-62, .cls-63, .cls-64, .cls-65, .cls-66, .cls-67, .cls-68, .cls-8, .cls-9 {
        stroke-miterlimit: 10;
      }

      .cls-2 {
        fill: #7a6351;
      }

      .cls-3 {
        stroke: #2a190c;
      }

      .cls-4 {
        fill: #70533e;
      }

      .cls-5 {
        fill: #b2a095;
      }

      .cls-6 {
        fill: #5c4435;
      }

      .cls-7 {
        fill: #362d26;
      }

      .cls-36, .cls-8 {
        fill: #231e25;
      }

      .cls-8 {
        stroke-width: 0.62px;
      }

      .cls-9 {
        fill: #897162;
      }

      .cls-10 {
        fill: #4a3a2f;
        stroke: #4a3a2f;
      }

      .cls-11, .cls-14, .cls-16, .cls-22, .cls-30, .cls-34, .cls-35, .cls-44, .cls-45, .cls-46, .cls-49, .cls-51, .cls-52, .cls-66 {
        fill: none;
      }

      .cls-11 {
        stroke: #563f30;
      }

      .cls-12 {
        fill: #443e54;
      }

      .cls-13 {
        fill: #463b45;
      }

      .cls-15 {
        fill: #aba5a1;
      }

      .cls-16 {
        stroke: #4b382b;
      }

      .cls-17, .cls-39, .cls-40, .cls-43, .cls-48, .cls-50 {
        fill: #897466;
      }

      .cls-18 {
        fill: #bdccd4;
      }

      .cls-19, .cls-41, .cls-62 {
        fill: #513a28;
      }

      .cls-20, .cls-63 {
        fill: #837468;
      }

      .cls-21 {
        fill: #b6ada6;
      }

      .cls-22 {
        stroke: #554133;
      }

      .cls-23 {
        fill: #897063;
      }

      .cls-24 {
        fill: #28232d;
      }

      .cls-25 {
        fill: #352f3f;
      }

      .cls-26 {
        fill: #352d38;
      }

      .cls-27 {
        fill: #a49ea0;
      }

      .cls-28, .cls-53 {
        fill: #7b6a5e;
      }

      .cls-29 {
        fill: #ada9a7;
      }

      .cls-30 {
        stroke: #2d2018;
      }

      .cls-31 {
        fill: #b4b1ab;
      }

      .cls-32 {
        fill: #aba19a;
      }

      .cls-33 {
        fill: #8f786d;
        stroke-width: 0.96px;
      }

      .cls-34, .cls-46, .cls-52 {
        stroke: #624a3f;
      }

      .cls-35 {
        stroke: #fff;
        opacity: 0.11;
      }

      .cls-37 {
        opacity: 0.42;
      }

      .cls-38 {
        fill: #fff;
      }

      .cls-39 {
        stroke-width: 1.04px;
      }

      .cls-40 {
        stroke-width: 1.16px;
      }

      .cls-41 {
        stroke-width: 1.11px;
      }

      .cls-42, .cls-47 {
        fill: #607d9f;
      }

      .cls-43 {
        stroke-width: 0.71px;
      }

      .cls-44, .cls-45, .cls-49, .cls-51 {
        stroke: #5a4233;
      }

      .cls-44 {
        stroke-width: 0.5px;
      }

      .cls-46 {
        stroke-width: 1px;
      }

      .cls-47, .cls-51, .cls-53 {
        stroke-width: 0.95px;
      }

      .cls-48 {
        stroke-width: 0.67px;
      }

      .cls-49 {
        stroke-width: 0.48px;
      }

      .cls-50 {
        stroke-width: 0.99px;
      }

      .cls-52 {
        stroke-width: 0.95px;
      }

      .cls-54 {
        fill: #322b20;
      }

      .cls-55 {
        fill: #826e61;
      }

      .cls-56 {
        fill: #8b7b70;
      }

      .cls-57 {
        fill: #39251f;
      }

      .cls-58 {
        fill: #8a7768;
      }

      .cls-59 {
        fill: #2f2016;
      }

      .cls-60 {
        fill: #998a81;
      }

      .cls-61 {
        fill: #3f362e;
      }

      .cls-62, .cls-63 {
        stroke-width: 0.81px;
      }

      .cls-64 {
        fill: #594537;
      }

      .cls-65 {
        fill: #372920;
      }

      .cls-66 {
        stroke: #3e3027;
      }

      .cls-67 {
        fill: #281e19;
      }

      .cls-68 {
        fill: #2a190c;
      }
    </style>
  </defs>
  <title>guy</title>
  <g id="Layer_2" data-name="Layer 2">
    <g id="Layer_1-2" data-name="Layer 1">
      <g>
        <polygon class="cls-1" points="762 353.52 762.03 355.71 753 353.52 753 350.52 762 353.52"/>
        <polygon class="cls-2" points="583.25 129.44 655 42.52 683 202.52 681.5 243.99 682.5 278.02 679 384.52 678 391.52 578.13 380.89 583.25 129.44"/>
        <g>
          <line class="cls-3" x1="587" y1="126.52" x2="679.42" y2="183.97"/>
          <line class="cls-3" x1="586.19" y1="144.79" x2="679.39" y2="198.63"/>
          <line class="cls-3" x1="585.37" y1="163.06" x2="679.36" y2="213.29"/>
          <line class="cls-3" x1="584.56" y1="181.33" x2="679.32" y2="227.94"/>
          <line class="cls-3" x1="583.74" y1="199.6" x2="679.29" y2="242.6"/>
          <line class="cls-3" x1="582.93" y1="217.88" x2="679.26" y2="257.26"/>
          <line class="cls-3" x1="582.11" y1="236.15" x2="679.23" y2="271.92"/>
          <line class="cls-3" x1="581.3" y1="254.42" x2="679.19" y2="286.57"/>
          <line class="cls-3" x1="580.48" y1="272.69" x2="679.16" y2="301.23"/>
          <line class="cls-3" x1="579.67" y1="290.96" x2="679.13" y2="315.89"/>
          <line class="cls-3" x1="578.85" y1="309.23" x2="679.1" y2="330.55"/>
          <line class="cls-3" x1="578.04" y1="327.5" x2="679.06" y2="345.2"/>
          <line class="cls-3" x1="577.22" y1="345.78" x2="679.03" y2="359.86"/>
          <line class="cls-3" x1="576.41" y1="364.05" x2="679" y2="374.52"/>
        </g>
        <polygon class="cls-4" points="27.06 163.53 21 379.52 575 383.52 579 127.52 27.06 163.53"/>
        <g>
          <line class="cls-3" x1="27.5" y1="177.02" x2="572.5" y2="145.02"/>
          <line class="cls-3" x1="27.04" y1="192.56" x2="572.75" y2="163.31"/>
          <line class="cls-3" x1="26.58" y1="208.1" x2="573" y2="181.6"/>
          <line class="cls-3" x1="26.12" y1="223.64" x2="573.25" y2="199.89"/>
          <line class="cls-3" x1="25.67" y1="239.18" x2="573.5" y2="218.18"/>
          <line class="cls-3" x1="25.21" y1="254.73" x2="573.75" y2="236.48"/>
          <line class="cls-3" x1="24.75" y1="270.27" x2="574" y2="254.77"/>
          <line class="cls-3" x1="24.29" y1="285.81" x2="574.25" y2="273.06"/>
          <line class="cls-3" x1="23.83" y1="301.35" x2="574.5" y2="291.35"/>
          <line class="cls-3" x1="23.38" y1="316.89" x2="574.75" y2="309.64"/>
          <line class="cls-3" x1="22.92" y1="332.43" x2="575" y2="327.93"/>
          <line class="cls-3" x1="22.46" y1="347.98" x2="575.25" y2="346.23"/>
          <line class="cls-3" x1="22" y1="363.52" x2="575.5" y2="364.52"/>
        </g>
        <polygon class="cls-5" points="257 245.52 301.92 245.23 302 374.52 255 373.52 257 245.52"/>
        <polygon class="cls-6" points="252.36 228.06 257 226.52 255 373.52 249 373.52 252.36 228.06"/>
        <polygon class="cls-7" points="257 228.52 257 245.52 301.92 245.23 302.35 225.79 257 228.52"/>
        <g>
          <rect class="cls-8" x="281.92" y="229.39" width="8.5" height="5.5" transform="translate(-4.56 5.74) rotate(-1.14)"/>
          <rect class="cls-8" x="268.92" y="229.65" width="8.5" height="5.5" transform="translate(-4.57 5.48) rotate(-1.14)"/>
          <rect class="cls-8" x="258.92" y="229.85" width="8.5" height="5.5" transform="translate(-4.58 5.28) rotate(-1.14)"/>
          <rect class="cls-8" x="291.92" y="229.19" width="8.5" height="5.5" transform="translate(-4.56 5.94) rotate(-1.14)"/>
          <rect class="cls-8" x="292.08" y="237.19" width="8.5" height="5.5" transform="translate(-4.72 5.94) rotate(-1.14)"/>
          <rect class="cls-8" x="282.08" y="237.39" width="8.5" height="5.5" transform="translate(-4.72 5.75) rotate(-1.14)"/>
          <rect class="cls-8" x="269.08" y="237.65" width="8.5" height="5.5" transform="translate(-4.73 5.49) rotate(-1.14)"/>
          <rect class="cls-8" x="259.08" y="237.84" width="8.5" height="5.5" transform="translate(-4.74 5.29) rotate(-1.14)"/>
        </g>
        <g>
          <polygon class="cls-9" points="302.35 225.79 302 374.52 314 374.52 313 224.52 302.35 225.79"/>
          <line class="cls-10" x1="305" y1="227.02" x2="304" y2="374.02"/>
          <line class="cls-10" x1="311" y1="227.02" x2="310" y2="374.02"/>
          <line class="cls-10" x1="308" y1="227.02" x2="307" y2="374.02"/>
        </g>
        <g>
          <polygon class="cls-9" points="241.67 225.7 238.66 374.4 250.66 374.62 252.34 224.62 241.67 225.7"/>
          <line class="cls-10" x1="244.3" y1="226.98" x2="240.67" y2="373.94"/>
          <line class="cls-10" x1="250.3" y1="227.09" x2="246.67" y2="374.05"/>
          <line class="cls-10" x1="247.3" y1="227.03" x2="243.67" y2="373.99"/>
        </g>
        <g>
          <rect class="cls-1" x="687" y="352.52" width="2" height="32"/>
          <rect class="cls-1" x="696" y="352.52" width="2" height="32"/>
          <rect class="cls-1" x="705" y="352.52" width="2" height="32"/>
          <polygon class="cls-1" points="713 351.52 713 384.52 715 384.52 715 352.52 713 351.52"/>
          <rect class="cls-1" x="722" y="351.52" width="2" height="33"/>
          <rect class="cls-1" x="730" y="351.52" width="2" height="33"/>
          <rect class="cls-1" x="739" y="352.52" width="2" height="32"/>
        </g>
        <g>
          <polygon class="cls-5" points="573.5 135.02 572 377.52 579 377.52 582 378.52 585.5 137.02 581 134.52 573.5 135.02"/>
          <line class="cls-11" x1="579" y1="393.02" x2="582" y2="135.52"/>
        </g>
        <g id="chimneyRight">
          <polygon class="cls-12" points="602 9.52 602 2.52 627 0.52 636 9.52 636 15.52 627 7.52 602 9.52"/>
          <polygon class="cls-13" points="602 47.52 603 9.52 627 7.52 635.05 14.81 635 38.52 628 41.52 626 46.52 602 47.52"/>
          <line class="cls-14" x1="627" y1="0.52" x2="626" y2="46.52"/>
        </g>
        <polygon class="cls-15" points="608.19 103.87 627 116.52 625 119.52 624 193.52 621 191.52 622 122.52 609 113.52 609 183.52 606 183.52 606 106.52 608.19 103.87"/>
        <line class="cls-16" x1="606" y1="106.52" x2="625" y2="119.52"/>
        <path class="cls-17" d="M609,113.52v9l9,5-1,61,3.74,2.74a.16.16,0,0,0,.27-.11l1-68.63Z"/>
        <polygon class="cls-18" points="609 121.52 618 127.52 617 188.52 609 183.52 609 121.52"/>
        <polygon class="cls-17" points="609 151.52 617 156.52 617 161.52 609 156.52 609 151.52"/>
        <g>
          <path class="cls-19" d="M606.06,183.76l.81,3.25a.2.2,0,0,0,.37,0l1.62-3.25a.2.2,0,0,0-.18-.28h-2.43A.19.19,0,0,0,606.06,183.76Z"/>
          <path class="cls-20" d="M609,183.52l16,11-1,3-16.8-9.89a.24.24,0,0,1-.1-.32Z"/>
        </g>
        <polygon class="cls-21" points="655.5 138.02 654 209.52 656 209.52 657 146.52 667 155.52 665 216.52 667 217.52 668.85 155.27 665.97 146.63 655.5 138.02"/>
        <line class="cls-22" x1="656" y1="140.52" x2="669" y2="150.52"/>
        <polygon class="cls-18" points="657.55 156.07 662 159.52 661 212.52 656 209.52 657.55 156.07"/>
        <polygon class="cls-17" points="657 178.52 662 181.52 662 185.52 657 182.52 657 178.52"/>
        <polygon class="cls-17" points="657 146.52 656.95 155.53 662 159.52 660.62 212.35 664.97 214.64 667 155.52 657 146.52"/>
        <g id="roof">
          <polygon class="cls-23" points="585 112.52 19 150.52 26 156.52 25.5 169.02 279 153.52 279 144.52 322 143.52 322.14 150.63 582 134.52 582 119.52 585 112.52"/>
          <path id="roof-2" data-name="roof" class="cls-24" d="M130,79.52l-127,64,589-41,65-64-1-3C483.53,57.87,308,72.09,130,79.52Z"/>
          <g id="chimneyLeft">
            <g id="chimneyLeft-2" data-name="chimneyLeft">
              <polygon class="cls-25" points="143 49.52 143 42.52 161 41.52 177 49.52 177 56.52 160 48.52 143 49.52"/>
              <polygon class="cls-26" points="142 83.52 143 49.52 161 48.52 177 56.52 177 79.52 168 79.52 161 83.52 142 83.52"/>
            </g>
            <line class="cls-14" x1="161" y1="41.52" x2="161" y2="83.02"/>
          </g>
          <polygon class="cls-27" points="592 102.52 657 38.52 697 185.52 692 182.52 655 52.52 602 110.52 592 102.52"/>
          <path class="cls-28" d="M.5,143v9c202.41-11.77,400-26.39,592-40l16.57,10.72a.32.32,0,0,0,.5-.23l.93-6.49L592,102.52C422,116.41,218.86,129.83.5,143Z"/>
          <path class="cls-17" d="M585,112.52,599.5,123h9.4a.21.21,0,0,0,.13-.37l-13-10.31a3.23,3.23,0,0,0-2.35-.69Z"/>
          <path class="cls-29" d="M595.5,142l1-14,3-5-13.8-10a.71.71,0,0,0-1.06.28L581.5,120v15Z"/>
          <line class="cls-30" x1="581.5" y1="120.02" x2="596" y2="128.52"/>
          <line class="cls-30" x1="581.5" y1="120.02" x2="26" y2="156.52"/>
          <path class="cls-31" d="M693.56,191.19,686.5,185v-3l1-3,9,6.3a1.41,1.41,0,0,1,.45,1.78l-1.9,3.8A1,1,0,0,1,693.56,191.19Z"/>
          <polygon class="cls-32" points="676 184.52 675 198.52 683 204.52 683 194.52 685 192.52 687 192.52 687 189.52 676 184.52"/>
          <path class="cls-17" d="M693.82,191.54l-6.82,1L676.69,185a.27.27,0,0,1,.16-.5H686l7.87,6.88A.08.08,0,0,1,693.82,191.54Z"/>
          <path class="cls-1" d="M676,178.52v6l10.5.5v-3l.5-.5.3-1.52a.85.85,0,0,0-.8-1Z"/>
          <polygon class="cls-17" points="649 59.52 655 52.52 692 182.52 687 178.52 685 178.52 649 59.52"/>
          <polygon class="cls-32" points="649 59.52 642.15 66.82 676 178.52 685 178.52 649 59.52"/>
        </g>
        <polygon class="cls-32" points="25 168.52 20 372.52 24 373.52 29 168.52 25 168.52"/>
        <polygon class="cls-33" points="279 144.52 279 183.52 322 182.6 322 143.02 279 144.52"/>
        <polyline class="cls-34" points="318 178.02 318 147.52 283 147.52 283 178.52"/>
        <line class="cls-35" x1="283.45" y1="177.8" x2="317.5" y2="177.52"/>
        <g>
          <g>
            <rect class="cls-36" x="302" y="150.52" width="12" height="10"/>
            <g class="cls-37">
              <g>
                <path class="cls-38" d="M310.24,156.64c-.1,0-.11-.17.06-.31l.09-.12C310.42,156.28,310.59,156.44,310.24,156.64Z"/>
                <path class="cls-38" d="M309.55,157.4c0-.11.09-.12.15-.17l.06.08A.21.21,0,0,1,309.55,157.4Z"/>
                <path class="cls-38" d="M308,159V159a.13.13,0,0,0,0-.13c.08-.09.21-.13.22,0S308.08,158.84,308,159Z"/>
                <path class="cls-38" d="M308.71,156.23a3.4,3.4,0,0,0-.76.92l-.46.35c.14-.25-.1-.29-.2-.39s-.06.22-.24.2c.05-.07.17-.15.19-.21-.2,0-.5.35-.58.06l.15-.24c-.3-.35-1-.41-1.05-.93-.27.13-.34-.1-.57-.08l.13-.12c-.28.13-.09-.2-.18-.25l.07-.18c.19-.21.26.11.53-.23.06-.3-.51,0-.38-.3-.05-.16-.19,0-.32,0s-.11.13-.27.25c-.31-.19.37-.79.11-1-.12.08-.55.13-.56.44l.2,0-.1.18c-.06-.06-.14-.19-.28,0,.42-.51-.85,0,.06-.51,0,.22,0,.23.28.12-.17-.28-.15-.67-.32-.87l-.27.13a.64.64,0,0,0,.24-.56c-.08,0-.11-.07-.21,0s.23.42-.3.58a1.49,1.49,0,0,1,.08-1.12c.14.06.14.18.53,0,.61.12.74.73,1.41.79-.14.14-.12.29-.29.39s.11.12-.08.33c.46.09.62.53.82.81.32-.4.38-.06.6-.13-.11.21.07.27.15.35s.14,0,.24-.13c-.11,0,0-.11-.06-.21.31-.22.11.15.18.26l-.2.08c.13.17-.19.77.2.68l.17-.35c.28.07.09.61.54.45,0-.2-.38-.22,0-.53.2-.16.31,0,.28.12C308.06,156,309.05,155.53,308.71,156.23Z"/>
                <path class="cls-38" d="M309,155.3c-.22-.22-.63.34-.77.07a.46.46,0,0,0,.24-.48c-.18,0-.17-.13-.23-.19s.25-.27.33-.19C308.37,155.05,309.23,154.78,309,155.3Z"/>
                <path class="cls-38" d="M308.11,156.44c-.13-.09.36-.44.15-.46.28-.16.06.06.16.16l-.19.06Z"/>
                <path class="cls-38" d="M307.91,155c-.09-.05-.12-.32.13-.55,0,0,.16-.13.08-.13S308.23,154.63,307.91,155Z"/>
                <path class="cls-38" d="M307.16,156.18a.32.32,0,0,1-.18-.1C307.06,156.08,307.21,156,307.16,156.18Z"/>
                <path class="cls-38" d="M307.34,155.28c-.18.18-.1,0-.12,0l0-.12C307.35,155.12,307.42,155.15,307.34,155.28Z"/>
                <path class="cls-38" d="M307.37,154.14c0-.17.34-.1.27-.25l.09.05-.28.28Z"/>
                <path class="cls-38" d="M307.5,153.75c-.1,0-.15,0-.13-.09l.13-.07C307.56,153.57,307.46,153.71,307.5,153.75Z"/>
                <path class="cls-38" d="M306.94,154.47c-.12,0,0-.11.08-.2S307,154.5,306.94,154.47Z"/>
                <path class="cls-38" d="M304.67,155.52c.29-.16.23.06.38.09C304.9,155.58,304.73,155.65,304.67,155.52Z"/>
                <path class="cls-38" d="M311,156.93c0,.11.06.06.13,0l0-.1Z"/>
                <path class="cls-38" d="M310.64,156.41c-.29.24-.1.17-.21.44.05.14.34,0,.42.07l.18-.13C311,156.62,310.9,156.38,310.64,156.41Z"/>
                <path class="cls-38" d="M309.31,157.71c0,.2.26.1.33.15a4.18,4.18,0,0,0-.26-.34A.3.3,0,0,0,309.31,157.71Z"/>
                <path class="cls-38" d="M311.86,157.11c-.1,0-.08-.31-.38.07,0,.09,0,.2,0,.3-.26.43-.12-.12-.19-.14,0,.13-.16.27-.25.27-.05-.18-.26-.25-.44-.35-.18.08-.23-.32-.51.07-.13-.06.1-.35.1-.49-.62.2.35-1.1-.36-.85.23-.18.09-.27.06-.33s-.28-.39-.64,0c-.2.31.37.07.2.42-.25.58-.34,0-.71.26.09,0-.21.27,0,.26-.34-.05-.33.44-.64.54,0,.42,0,.4-.36.94.21.07.47-.26.68-.38s0,.48.25.51c-.62.45-.17.64,0,.78s.5-.45.7-.22c-.1.39-.55.19-.62.62l.21,0c.25-.17.54-.44.74-.55,0,0,.13.08.07.18s-.3.29-.27.5a.84.84,0,0,0,.24-.16c.2-.83.26.11.65-.23.73-.4-.13,1,.57.87,0-.72.46-.25.68-.51.14.05.17.24.28.47.05-.08.17-.11.19-.25a16.12,16.12,0,0,1-.26-2.64A.08.08,0,0,0,311.86,157.11Z"/>
              </g>
            </g>
          </g>
          <g>
            <rect class="cls-36" x="287" y="163.52" width="12" height="11"/>
            <g class="cls-37">
              <g>
                <path class="cls-38" d="M296.24,169.64c-.1,0-.11-.17.06-.31l.09-.12C296.42,169.28,296.59,169.44,296.24,169.64Z"/>
                <path class="cls-38" d="M295.55,170.4c0-.11.09-.12.15-.17l.06.08A.21.21,0,0,1,295.55,170.4Z"/>
                <path class="cls-38" d="M294,172V172a.13.13,0,0,0,0-.13c.08-.09.21-.13.22,0S294.08,171.84,294,172Z"/>
                <path class="cls-38" d="M294.71,169.23a3.4,3.4,0,0,0-.76.92l-.46.35c.14-.25-.1-.29-.2-.39s-.06.22-.24.2c.05-.07.17-.15.19-.21-.2,0-.5.35-.58.06l.15-.24c-.3-.35-1-.41-1.05-.93-.27.13-.34-.1-.57-.08l.13-.12c-.28.13-.09-.2-.18-.25l.07-.18c.19-.21.26.11.53-.23.06-.3-.51,0-.38-.3-.05-.16-.19,0-.32,0s-.11.13-.27.25c-.31-.19.37-.79.11-1-.12.08-.55.13-.56.44l.2,0-.1.18c-.06-.06-.14-.19-.28,0,.42-.51-.85,0,.06-.51,0,.22,0,.23.28.12-.17-.28-.15-.67-.32-.87l-.27.13a.64.64,0,0,0,.24-.56c-.08,0-.11-.07-.21,0s.23.42-.3.58a1.49,1.49,0,0,1,.08-1.12c.14.06.14.18.53,0,.61.12.74.73,1.41.79-.14.14-.12.29-.29.39s.11.12-.08.33c.46.09.62.53.82.81.32-.4.38-.06.6-.13-.11.21.07.27.15.35s.14,0,.24-.13c-.11,0,0-.11-.06-.21.31-.22.11.15.18.26l-.2.08c.13.17-.19.77.2.68l.17-.35c.28.07.09.61.54.45,0-.2-.38-.22,0-.53.2-.16.31,0,.28.12C294.06,169,295.05,168.53,294.71,169.23Z"/>
                <path class="cls-38" d="M295,168.3c-.22-.22-.63.34-.77.07a.46.46,0,0,0,.24-.48c-.18,0-.17-.13-.23-.19s.25-.27.33-.19C294.37,168.05,295.23,167.78,295,168.3Z"/>
                <path class="cls-38" d="M294.11,169.44c-.13-.09.36-.44.15-.46.28-.16.06.06.16.16l-.19.06Z"/>
                <path class="cls-38" d="M293.91,168c-.09-.05-.12-.32.13-.55,0,0,.16-.13.08-.13S294.23,167.63,293.91,168Z"/>
                <path class="cls-38" d="M293.16,169.18a.32.32,0,0,1-.18-.1C293.06,169.08,293.21,169,293.16,169.18Z"/>
                <path class="cls-38" d="M293.34,168.28c-.18.18-.1,0-.12,0l0-.12C293.35,168.12,293.42,168.15,293.34,168.28Z"/>
                <path class="cls-38" d="M293.37,167.14c0-.17.34-.1.27-.25l.09.05-.28.28Z"/>
                <path class="cls-38" d="M293.5,166.75c-.1,0-.15,0-.13-.09l.13-.07C293.56,166.57,293.46,166.71,293.5,166.75Z"/>
                <path class="cls-38" d="M292.94,167.47c-.12,0,0-.11.08-.2S293,167.5,292.94,167.47Z"/>
                <path class="cls-38" d="M290.67,168.52c.29-.16.23.06.38.09C290.9,168.58,290.73,168.65,290.67,168.52Z"/>
                <path class="cls-38" d="M297,169.93c0,.11.06.06.13,0l0-.1Z"/>
                <path class="cls-38" d="M296.64,169.41c-.29.24-.1.17-.21.44.05.14.34,0,.42.07l.18-.13C297,169.62,296.9,169.38,296.64,169.41Z"/>
                <path class="cls-38" d="M295.31,170.71c0,.2.26.1.33.15a4.18,4.18,0,0,0-.26-.34A.3.3,0,0,0,295.31,170.71Z"/>
                <path class="cls-38" d="M297.86,170.11c-.1,0-.08-.31-.38.07,0,.09,0,.2,0,.3-.26.43-.12-.12-.19-.14,0,.13-.16.27-.25.27-.05-.18-.26-.25-.44-.35-.18.08-.23-.32-.51.07-.13-.06.1-.35.1-.49-.62.2.35-1.1-.36-.85.23-.18.09-.27.06-.33s-.28-.39-.64,0c-.2.31.37.07.2.42-.25.58-.34,0-.71.26.09,0-.21.27,0,.26-.34-.05-.33.44-.64.54,0,.42,0,.4-.36.94.21.07.47-.26.68-.38s0,.48.25.51c-.62.45-.17.64,0,.78s.5-.45.7-.22c-.1.39-.55.19-.62.62l.21,0c.25-.17.54-.44.74-.55,0,0,.13.08.07.18s-.3.29-.27.5a.84.84,0,0,0,.24-.16c.2-.83.26.11.65-.23.73-.4-.13,1,.57.87,0-.72.46-.25.68-.51.14.05.17.24.28.47.05-.08.17-.11.19-.25a16.12,16.12,0,0,1-.26-2.64A.08.08,0,0,0,297.86,170.11Z"/>
              </g>
            </g>
          </g>
          <g>
            <rect class="cls-36" x="302" y="163.52" width="12" height="11"/>
            <g class="cls-37">
              <g>
                <path class="cls-38" d="M311.24,169.64c-.1,0-.11-.17.06-.31l.09-.12C311.42,169.28,311.59,169.44,311.24,169.64Z"/>
                <path class="cls-38" d="M310.55,170.4c0-.11.09-.12.15-.17l.06.08A.21.21,0,0,1,310.55,170.4Z"/>
                <path class="cls-38" d="M309,172V172a.13.13,0,0,0,0-.13c.08-.09.21-.13.22,0S309.08,171.84,309,172Z"/>
                <path class="cls-38" d="M309.71,169.23a3.4,3.4,0,0,0-.76.92l-.46.35c.14-.25-.1-.29-.2-.39s-.06.22-.24.2c.05-.07.17-.15.19-.21-.2,0-.5.35-.58.06l.15-.24c-.3-.35-1-.41-1.05-.93-.27.13-.34-.1-.57-.08l.13-.12c-.28.13-.09-.2-.18-.25l.07-.18c.19-.21.26.11.53-.23.06-.3-.51,0-.38-.3-.05-.16-.19,0-.32,0s-.11.13-.27.25c-.31-.19.37-.79.11-1-.12.08-.55.13-.56.44l.2,0-.1.18c-.06-.06-.14-.19-.28,0,.42-.51-.85,0,.06-.51,0,.22,0,.23.28.12-.17-.28-.15-.67-.32-.87l-.27.13a.64.64,0,0,0,.24-.56c-.08,0-.11-.07-.21,0s.23.42-.3.58a1.49,1.49,0,0,1,.08-1.12c.14.06.14.18.53,0,.61.12.74.73,1.41.79-.14.14-.12.29-.29.39s.11.12-.08.33c.46.09.62.53.82.81.32-.4.38-.06.6-.13-.11.21.07.27.15.35s.14,0,.24-.13c-.11,0,0-.11-.06-.21.31-.22.11.15.18.26l-.2.08c.13.17-.19.77.2.68l.17-.35c.28.07.09.61.54.45,0-.2-.38-.22,0-.53.2-.16.31,0,.28.12C309.06,169,310.05,168.53,309.71,169.23Z"/>
                <path class="cls-38" d="M310,168.3c-.22-.22-.63.34-.77.07a.46.46,0,0,0,.24-.48c-.18,0-.17-.13-.23-.19s.25-.27.33-.19C309.37,168.05,310.23,167.78,310,168.3Z"/>
                <path class="cls-38" d="M309.11,169.44c-.13-.09.36-.44.15-.46.28-.16.06.06.16.16l-.19.06Z"/>
                <path class="cls-38" d="M308.91,168c-.09-.05-.12-.32.13-.55,0,0,.16-.13.08-.13S309.23,167.63,308.91,168Z"/>
                <path class="cls-38" d="M308.16,169.18a.32.32,0,0,1-.18-.1C308.06,169.08,308.21,169,308.16,169.18Z"/>
                <path class="cls-38" d="M308.34,168.28c-.18.18-.1,0-.12,0l0-.12C308.35,168.12,308.42,168.15,308.34,168.28Z"/>
                <path class="cls-38" d="M308.37,167.14c0-.17.34-.1.27-.25l.09.05-.28.28Z"/>
                <path class="cls-38" d="M308.5,166.75c-.1,0-.15,0-.13-.09l.13-.07C308.56,166.57,308.46,166.71,308.5,166.75Z"/>
                <path class="cls-38" d="M307.94,167.47c-.12,0,0-.11.08-.2S308,167.5,307.94,167.47Z"/>
                <path class="cls-38" d="M305.67,168.52c.29-.16.23.06.38.09C305.9,168.58,305.73,168.65,305.67,168.52Z"/>
                <path class="cls-38" d="M312,169.93c0,.11.06.06.13,0l0-.1Z"/>
                <path class="cls-38" d="M311.64,169.41c-.29.24-.1.17-.21.44.05.14.34,0,.42.07l.18-.13C312,169.62,311.9,169.38,311.64,169.41Z"/>
                <path class="cls-38" d="M310.31,170.71c0,.2.26.1.33.15a4.18,4.18,0,0,0-.26-.34A.3.3,0,0,0,310.31,170.71Z"/>
                <path class="cls-38" d="M312.86,170.11c-.1,0-.08-.31-.38.07,0,.09,0,.2,0,.3-.26.43-.12-.12-.19-.14,0,.13-.16.27-.25.27-.05-.18-.26-.25-.44-.35-.18.08-.23-.32-.51.07-.13-.06.1-.35.1-.49-.62.2.35-1.1-.36-.85.23-.18.09-.27.06-.33s-.28-.39-.64,0c-.2.31.37.07.2.42-.25.58-.34,0-.71.26.09,0-.21.27,0,.26-.34-.05-.33.44-.64.54,0,.42,0,.4-.36.94.21.07.47-.26.68-.38s0,.48.25.51c-.62.45-.17.64,0,.78s.5-.45.7-.22c-.1.39-.55.19-.62.62l.21,0c.25-.17.54-.44.74-.55,0,0,.13.08.07.18s-.3.29-.27.5a.84.84,0,0,0,.24-.16c.2-.83.26.11.65-.23.73-.4-.13,1,.57.87,0-.72.46-.25.68-.51.14.05.17.24.28.47.05-.08.17-.11.19-.25a16.12,16.12,0,0,1-.26-2.64A.08.08,0,0,0,312.86,170.11Z"/>
              </g>
            </g>
          </g>
          <g>
            <rect class="cls-36" x="287" y="150.52" width="12" height="10"/>
            <g class="cls-37">
              <g>
                <path class="cls-38" d="M294.22,155.62c-.1,0-.12-.17.06-.32l.09-.11C294.39,155.25,294.57,155.42,294.22,155.62Z"/>
                <path class="cls-38" d="M293.53,156.38c0-.11.08-.12.15-.17l.05.07A.18.18,0,0,1,293.53,156.38Z"/>
                <path class="cls-38" d="M292,157.93V158a.13.13,0,0,0,0-.13c.08-.09.21-.13.22-.05S292.06,157.82,292,157.93Z"/>
                <path class="cls-38" d="M292.69,155.21a3.22,3.22,0,0,0-.76.92l-.47.35c.15-.26-.09-.29-.19-.39s-.06.22-.24.2c.05-.07.17-.16.19-.21-.2,0-.5.35-.58.06l.15-.25c-.31-.34-1-.4-1.05-.92-.27.13-.35-.1-.57-.09l.12-.11c-.27.13-.08-.21-.17-.26l.06-.17c.2-.21.27.1.54-.23.06-.3-.51,0-.38-.3,0-.16-.19,0-.32,0s-.11.13-.27.25c-.31-.19.37-.8.11-1-.12.08-.56.13-.57.44l.21,0-.1.18c-.06-.06-.15-.19-.28-.05.41-.5-.85,0,.05-.5,0,.21,0,.22.29.12-.17-.28-.15-.67-.32-.88l-.28.13a.61.61,0,0,0,.25-.55c-.08,0-.11-.07-.21,0s.23.42-.31.58a1.56,1.56,0,0,1,.08-1.13c.15.07.15.19.54,0,.61.13.74.73,1.4.8-.13.14-.11.28-.29.39s.12.12-.07.33c.46.09.62.53.82.81.32-.41.38-.06.6-.13-.11.21.06.26.14.34s.15,0,.25-.12c-.11,0,0-.12-.06-.21.31-.22.11.15.18.25l-.2.09c.13.16-.19.77.2.68l.17-.36c.28.08.09.62.54.46,0-.2-.38-.22,0-.53.2-.17.31,0,.28.12C292,155,293,154.5,292.69,155.21Z"/>
                <path class="cls-38" d="M293,154.28c-.22-.22-.63.33-.78.07.23-.14.3-.39.25-.48s-.17-.13-.23-.19.24-.28.32-.2C292.35,154,293.2,153.76,293,154.28Z"/>
                <path class="cls-38" d="M292.09,155.41c-.13-.09.36-.44.15-.45.28-.16.06.06.16.16l-.19,0Z"/>
                <path class="cls-38" d="M291.89,153.94c-.09-.05-.13-.33.13-.55,0,0,.16-.13.08-.13S292.21,153.61,291.89,153.94Z"/>
                <path class="cls-38" d="M291.14,155.15a.24.24,0,0,1-.19-.1C291,155.05,291.19,155,291.14,155.15Z"/>
                <path class="cls-38" d="M291.32,154.25c-.18.19-.1,0-.12,0l0-.11C291.33,154.1,291.4,154.13,291.32,154.25Z"/>
                <path class="cls-38" d="M291.35,153.12c0-.17.34-.1.26-.26l.1,0-.28.29Z"/>
                <path class="cls-38" d="M291.47,152.73c-.09,0-.14,0-.13-.09l.14-.07C291.54,152.55,291.43,152.69,291.47,152.73Z"/>
                <path class="cls-38" d="M290.91,153.45c-.11,0,0-.11.08-.2S291,153.48,290.91,153.45Z"/>
                <path class="cls-38" d="M288.65,154.5c.29-.16.23.06.38.09C288.88,154.56,288.71,154.63,288.65,154.5Z"/>
                <path class="cls-38" d="M295,155.9c0,.12.06.07.13,0l.05-.1Z"/>
                <path class="cls-38" d="M294.62,155.39c-.29.24-.11.17-.21.44s.34,0,.42.07l.17-.13C295,155.59,294.88,155.36,294.62,155.39Z"/>
                <path class="cls-38" d="M293.28,156.69c0,.2.27.1.34.14-.08-.12-.2-.25-.26-.33S293.3,156.63,293.28,156.69Z"/>
                <path class="cls-38" d="M295.83,156.09c-.09,0-.07-.32-.38.07,0,.09,0,.2,0,.3-.26.43-.12-.12-.19-.14,0,.13-.17.27-.25.26-.06-.17-.26-.24-.44-.35-.18.09-.23-.32-.51.08-.13-.06.1-.35.1-.49-.62.2.35-1.1-.36-.85.23-.19.09-.27.06-.34s-.28-.38-.64,0c-.2.32.37.08.2.43-.25.58-.35-.05-.71.26.09,0-.22.27,0,.26-.34,0-.33.44-.64.53,0,.43,0,.41-.37,1,.21.07.48-.26.69-.38s0,.48.25.51c-.62.45-.17.64,0,.77s.5-.44.69-.21c-.09.39-.54.18-.61.62l.21,0c.25-.17.54-.44.74-.55s.13.08.07.18a.44.44,0,0,0-.27.5,1.11,1.11,0,0,0,.24-.16c.2-.83.26.11.65-.23.73-.4-.13,1,.57.87,0-.72.46-.25.68-.51.14,0,.17.23.27.46.05-.07.18-.11.2-.24a16.3,16.3,0,0,1-.27-2.64A.17.17,0,0,1,295.83,156.09Z"/>
              </g>
            </g>
          </g>
        </g>
        <polygon class="cls-17" points="608 231.52 621 238.52 620 338.52 615 336.52 617 241.52 607.48 236.72 608 231.52"/>
        <polygon class="cls-18" points="609.21 237.55 617 241.52 615 336.52 608 335.52 609.21 237.55"/>
        <polygon class="cls-17" points="608.31 288.79 615.5 291.48 615.5 294.85 608.53 291.93 608.31 288.79"/>
        <path class="cls-21" d="M606,333.91V222.52l19,10-1,106.07a1.48,1.48,0,0,1-2.37,1.17L620,338.52l1-100-12-6v103h0A1.93,1.93,0,0,1,606,333.91Z"/>
        <line class="cls-22" x1="606" y1="225.52" x2="625" y2="235.52"/>
        <polygon class="cls-18" points="655.72 262.55 661.68 264.52 659.68 345.52 655 345.52 655.72 262.55"/>
        <polygon class="cls-17" points="655.81 300.79 663 303.48 663 306.85 656.03 303.93 655.81 300.79"/>
        <polygon class="cls-17" points="656 256.52 664 260.52 663 348.52 660 345.52 661 264.52 655.72 262.55 656 256.52"/>
        <polygon class="cls-21" points="653 248.52 652 346.52 655 345.52 656 256.52 664 260.52 662.77 348.78 664.9 349.27 667 255.52 653 248.52"/>
        <path class="cls-1" d="M682.41,279.81,682,292.52h6c.34-3.92,2.77-5.82,7-6l53-1-2-11-63,1Z"/>
        <path class="cls-17" d="M666,272.52v12h7c1-2.9,3.19-4.75,7-5l57-1c4.65-.12,6.38,1.84,6,4h3l-2,68,5,2,.29-80.89Z"/>
        <polygon class="cls-1" points="750 271.52 754.35 271.2 752.76 348.57 752 385.52 748 386.52 750 271.52"/>
        <path class="cls-1" d="M772,274.52l1,3h-6l-2,115h-4l1-39-5-2,2-59c.8-6.33-1.82-7.09-5-7v-14c6.09-1.84,10-1.42,10,3Z"/>
        <path class="cls-24" d="M675,247.52l-10.56,19.77L757,265.52l9.94-21.88a.08.08,0,0,0-.07-.12Z"/>
        <path class="cls-31" d="M769,274.52h3L767.08,244a.15.15,0,0,0-.29,0L757,265.52l-93,2,0,3.43,96-2.43,5.47-12.95a.38.38,0,0,1,.71.11Z"/>
        <path class="cls-17" d="M769,274.52h-5l-1.23-2.46a2.73,2.73,0,0,0-2.5-1.51l-94.27,2-1-1a.57.57,0,0,1,.4-1l94.65-2,5-12c.09-.19,1.07-.53,1.11-.33Z"/>
        <polygon class="cls-21" points="674.14 282.64 681.73 285.78 679 388.52 673 388.52 676 291.52 669 288.52 668.9 284.73 673 284.52 674.14 282.64"/>
        <g>
          <path class="cls-39" d="M666,346.52l-1,4c.14.09-13-2-13-2l1-4Z"/>
          <path class="cls-19" d="M652,348.32l-1-3.8h2l-1,3.8A.05.05,0,0,1,652,348.32Z"/>
        </g>
        <g>
          <path class="cls-40" d="M626,337.52l-2,3c.17.11-17.83-3.82-17.83-3.82l1.63-3.85Z"/>
          <path class="cls-41" d="M606.13,336.5l-.78-3.9,2.45.25-1.55,3.67A.07.07,0,0,1,606.13,336.5Z"/>
        </g>
        <g>
          <polygon class="cls-42" points="416 231.52 460 230.52 459 329.52 415 330.52 416 231.52"/>
          <rect class="cls-43" x="435" y="231.52" width="2.5" height="98"/>
          <line class="cls-44" x1="438" y1="231.52" x2="438" y2="329.02"/>
          <rect class="cls-39" x="415" y="278.52" width="44" height="3"/>
          <line class="cls-45" x1="415.5" y1="282.52" x2="459" y2="282.52"/>
          <polygon class="cls-39" points="405 216.52 404 330.52 415 330.52 416 231.52 460 230.52 459 329.52 470 332.52 471 214.52 405 216.52"/>
          <polyline class="cls-46" points="463 330.02 464 226.52 411 227.52 411 331.02"/>
          <polygon class="cls-39" points="400 329.52 400 343.52 458 343.52 458 332.52 465 334.52 470 332.52 459 329.52 400 329.52"/>
          <polygon class="cls-28" points="458 332.52 458 343.52 464 344.52 465 334.52 458 332.52"/>
        </g>
        <g>
          <polygon class="cls-47" points="109.71 237.09 151.54 236.14 150.59 330.26 108.76 331.21 109.71 237.09"/>
          <rect class="cls-48" x="127.77" y="237.09" width="2.38" height="93.17"/>
          <line class="cls-49" x1="130.63" y1="237.09" x2="130.63" y2="329.78"/>
          <rect class="cls-50" x="108.76" y="281.77" width="41.83" height="2.85"/>
          <line class="cls-51" x1="109.24" y1="285.57" x2="150.59" y2="285.57"/>
          <polygon class="cls-50" points="99.25 222.83 98.3 331.21 108.76 331.21 109.71 237.09 151.54 236.14 150.59 330.26 161.05 333.11 162 220.93 99.25 222.83"/>
          <polyline class="cls-52" points="154.39 330.73 155.34 232.33 104.96 233.28 104.96 331.68"/>
          <path class="cls-50" d="M94.5,330.26v13.31h55.14V333.11l6.66,1.9,4.19-1.68a.2.2,0,0,0,0-.38l-9.88-2.69Z"/>
          <polygon class="cls-53" points="149.64 333.11 149.64 343.57 155.34 344.52 156.3 335.01 149.64 333.11"/>
        </g>
        <polygon class="cls-54" points="18 372.52 18 388.52 158.68 389.19 161.4 373.74 18 372.52"/>
        <line class="cls-14" x1="579" y1="377.02" x2="579" y2="392.02"/>
        <polygon class="cls-55" points="750 390.52 765.55 391.01 765 414.52 743 414.52 743 410.52 743 410.52 741 398.52 750 390.52"/>
        <polygon class="cls-56" points="747 405.52 747 410.52 762 410.52 762 395.52 752 395.52 747 405.52"/>
        <polygon class="cls-1" points="680 351.52 744 350.52 743.31 352.72 680.1 353.45 680 351.52"/>
        <path class="cls-1" d="M679.66,383.53l59.34,1v2.9l-60-.9v-2.35A.64.64,0,0,1,679.66,383.53Z"/>
        <polygon class="cls-57" points="664 388.52 664 399.52 750 400.52 750 390.52 664 388.52"/>
        <g>
          <path class="cls-58" d="M744,350.52l-5,21h4l5.28-17.16.23-1.59a2.31,2.31,0,0,0-2.74-2.61Z"/>
          <rect class="cls-59" x="739" y="371.52" width="4" height="2"/>
          <g>
            <polygon class="cls-60" points="748 383.52 743.29 397.73 743 405.52 750 387.52 761 386.52 761 382.52 748 383.52"/>
            <rect class="cls-60" x="739" y="373.52" width="4" height="41"/>
          </g>
        </g>
        <polygon class="cls-61" points="664 399.52 664 404.52 667 404.52 667.24 399.68 664 399.52"/>
        <polygon class="cls-61" points="701 400.52 701 405.52 704 405.52 704.24 400.68 701 400.52"/>
        <polygon class="cls-61" points="701 408.52 701 413.52 704 413.52 704.24 408.68 701 408.52"/>
        <polygon class="cls-61" points="664 407.52 664 412.52 667 412.52 667.24 407.68 664 407.52"/>
        <rect class="cls-61" x="736" y="409.52" width="3" height="5"/>
        <rect class="cls-61" x="736" y="400.52" width="3" height="5"/>
        <polygon class="cls-61" points="663 405.52 663 407.52 739 409.52 738.95 406.26 663 405.52"/>
        <polygon class="cls-21" points="669 288.52 671 289.52 669 388.52 667 388.52 669 288.52"/>
        <g>
          <path class="cls-62" d="M654.27,209.14l.75,2.7a.15.15,0,0,0,.28,0l1.15-2.78a.17.17,0,0,0-.15-.23l-1.89.08A.16.16,0,0,0,654.27,209.14Z"/>
          <path class="cls-63" d="M656.54,208.84l12.85,8.66-1.39,3-12.7-8.17a.22.22,0,0,1-.09-.27Z"/>
        </g>
        <g>
          <g>
            <polygon class="cls-9" points="169.23 322.75 169 366.52 172 366.52 172 323.52 169.23 322.75"/>
            <polygon class="cls-9" points="176.23 323.75 176 367.52 179 367.52 179 324.52 176.23 323.75"/>
            <polygon class="cls-9" points="184.23 323.75 184 367.52 187 367.52 187 324.52 184.23 323.75"/>
            <polygon class="cls-9" points="192.14 324.81 191.91 368.57 194.91 368.57 194.91 325.57 192.14 324.81"/>
            <polygon class="cls-9" points="199.14 325.81 198.91 369.57 201.91 369.57 201.91 326.57 199.14 325.81"/>
            <polygon class="cls-9" points="207.14 325.81 206.91 369.57 209.91 369.57 209.91 326.57 207.14 325.81"/>
            <polygon class="cls-9" points="215.14 326.81 214.91 370.57 217.91 370.57 217.91 327.57 215.14 326.81"/>
            <polygon class="cls-9" points="222.14 327.81 221.91 370.57 224.91 370.57 224.91 328.57 222.14 327.81"/>
          </g>
          <polygon class="cls-9" points="284 321.52 337 328.52 337 331.52 284.09 325.14 284 321.52"/>
          <polygon class="cls-64" points="154.5 376.02 154.18 386.16 284.02 387.97 284.5 377.02 154.5 376.02"/>
          <polygon class="cls-9" points="282.89 366.12 336 369.52 336 372.52 282.75 369.31 282.89 366.12"/>
          <g id="frontPorch">
            <path class="cls-65" d="M164,223.52l58,13c2.61,1.22,4.93,4.52,6.13,6.48a.47.47,0,0,0,.87-.25V230.2a1.73,1.73,0,0,1,1.68-1.73l77.19-2.36.13-8.59-88-1Z"/>
            <path class="cls-24" d="M216.5,188l131-5-63,18L142.44,207.5a.05.05,0,0,1,0-.1Z"/>
            <path class="cls-9" d="M340,194.52l-1,46c-1.57-4.15-4.28-7.12-9-8l-36-11c-4.51-.93-7.53,0-8,4l-3,149-11-1,4-146c-.16-4.4-1.56-7.94-8-8l-90,4c-5.47-.25-8.79,1.77-10,6l-1,143h-7l1.69-157.79L286,209.52Z"/>
            <polygon class="cls-9" points="349 183.52 349 192.52 286 209.52 144 215.52 141 207.52 284 201.52 349 183.52"/>
            <line class="cls-66" x1="286" y1="210.02" x2="284" y2="201.52"/>
            <polygon class="cls-64" points="148 389.52 147.5 400.02 280 402.52 280 391.52 148 389.52"/>
            <polygon class="cls-23" points="340 378.52 340 401.52 280 402.52 280 391.52 284 387.52 284 376.52 340 378.52"/>
            <polygon class="cls-67" points="151 373.52 151 376.52 280.98 376.79 340 378.52 340 374.52 281 373.52 151 373.52"/>
            <rect class="cls-68" x="140.5" y="387.02" width="147" height="3" transform="translate(5.77 -3.12) rotate(0.85)"/>
            <line class="cls-14" x1="284" y1="374.02" x2="284" y2="377.02"/>
          </g>
          <polygon class="cls-9" points="167.3 321.13 228 328.52 228 331.52 167.16 325.29 167.3 321.13"/>
          <polygon class="cls-9" points="167 364.55 227 368.52 227 371.52 166.89 369.15 167 364.55"/>
          <polygon class="cls-54" points="340 374.52 579 377.52 664 386.52 664 399.52 579 392.52 339.51 388.05 340 374.52"/>
          <g>
            <polygon class="cls-9" points="286 322.52 286 367.52 289 368.52 289 323.52 286 322.52"/>
            <polygon class="cls-9" points="294.23 323.75 293 367.52 296 368.52 297 324.52 294.23 323.75"/>
            <polygon class="cls-9" points="301.14 324.81 301 368.52 304 369.52 303.91 325.57 301.14 324.81"/>
            <polygon class="cls-9" points="309.14 325.81 309 368.52 311.91 369.57 311.91 326.57 309.14 325.81"/>
            <polygon class="cls-9" points="317 326.52 317 369.52 320 370.52 320 327.52 317 326.52"/>
            <polygon class="cls-9" points="325 327.52 325 369.52 327.91 370.57 328 328.52 325 327.52"/>
            <polygon class="cls-9" points="332 328.52 332 369.52 334.91 370.57 335 329.52 332 328.52"/>
          </g>
        </g>
        <rect class="cls-8" x="264" y="255.52" width="10" height="19"/>
        <rect class="cls-8" x="285" y="255.52" width="10" height="19"/>
        <rect class="cls-8" x="285" y="275.52" width="10" height="19"/>
        <rect class="cls-8" x="264" y="275.52" width="10" height="19"/>
        <rect class="cls-8" x="264" y="295.52" width="10" height="19"/>
        <rect class="cls-8" x="285" y="295.52" width="10" height="19"/>
        <circle class="cls-65" cx="296.5" cy="320.02" r="2.5"/>
      </g>
    </g>
  </g>
</svg>
