<svg xmlns="http://www.w3.org/2000/svg" viewBox="0 0 1024.2 540.85">
  <defs>
    <style>
      .cls-1 {
        fill: #7a9779;
        stroke: #415f4f;
        stroke-miterlimit: 10;
        stroke-width: 0.25px;
      }
    </style>
  </defs>
  <title>logo</title>
  <g id="Layer_2" data-name="Layer 2">
    <g id="Layer_1-2" data-name="Layer 1">
      <g>
        <path class="cls-1" d="M337.52,153.16l-14,5V222.4c-16.4,11.3-49.2,22.6-89.25,22.6-70,0-117.3-47.35-117.3-120.95S166.87.2,239,.2a164,164,0,0,1,66.85,12l4.35-12h11.7l-2.95,67H307.2l-5.8-31.55C283.93,20.71,264.65,13.2,235.54,13.2c-49.93,0-79.88,44.8-79.88,108.06,0,62.37,30.9,109.16,84.88,109.16a84.48,84.48,0,0,0,48-13.39V158.25l-36-3.64V145.2h85Z"/>
        <path class="cls-1" d="M485.85,90.41,476,116.8c-7.32-4.71-23.44-12.85-27.37-12.85-16.12,0-26.14,22-26.14,52v71.36l34,2.93v7.93h-89v-7.95l23-2.93V102.05l-23-4V90l52-6.9v39.1h.89c8.94-30,26.48-40.81,44.22-40.81A32.32,32.32,0,0,1,485.85,90.41Z"/>
        <path class="cls-1" d="M644.52,151.2H539.87a69.06,69.06,0,0,0-.5,9.74c0,38.42,19.88,67.59,48.7,67.59a55.11,55.11,0,0,0,46.31-22.47l8,8.35a74,74,0,0,1-60.82,28.92c-44.72,0-76.38-32.54-76.38-80.7s35.14-80.75,76.78-80.75c39.75,0,62.61,24.6,62.61,62.62Zm-33.6-11c0-23.5-5.81-48.84-31.85-48.84-21.71,0-35.48,22.81-38.41,48.84Z"/>
        <path class="cls-1" d="M813.52,151.2H708.87c-.35,2.89-.35,7.61-.35,9.94,0,38.41,19.88,67.39,48.55,67.39a55.11,55.11,0,0,0,46.31-22.47l8,8.35a74,74,0,0,1-60.82,28.92c-44.72,0-76.38-32.54-76.38-80.7s35.14-80.75,76.78-80.75c39.75,0,62.61,24.6,62.61,62.62Zm-32.8-11c0-23.5-5.81-48.84-31.85-48.84-21.77,0-35.48,22.81-38.41,48.84Z"/>
        <path class="cls-1" d="M1021.47,238.2h-79v-7.95l24-2.93V109.17c-3.58-7.61-11.93-12.68-23.86-12.68-29.37,0-43.14,29.83-43.14,64.07v66.76l24,2.93v7.95h-79v-7.95l23-2.93V102.05l-23-4V89.7l53-7.26V121.2h-.17C907.37,95.1,926.56,81,951.42,81c30.06,0,47.1,20.63,47.1,50.72v95.62l23,2.93Z"/>
      </g>
      <g>
        <path class="cls-1" d="M220.52,449.16l-14,5v64.07c-16.39,11.24-49.16,22.53-89.18,22.53C47.44,540.82.12,493.51.12,420s50-123.76,122-123.76a164.47,164.47,0,0,1,66.6,12l4.35-12h11.69l-2.95,67h-10.4l-5.79-31.57c-17.45-14.95-36.69-22.52-65.76-22.52C70,309.11,40,353.94,40,417.25c-.15,62.41,30.51,109.13,84.51,109.13a84.55,84.55,0,0,0,48-13.4V454.25l-36-3.58V441.2h84Z"/>
        <path class="cls-1" d="M369.05,387.6,359.22,414c-7.51-4.95-23.63-12.63-27.56-12.63-16.12,0-26.14,22-26.14,52v71.13l34,2.87v7.92h-88v-8l23-2.88V399l-23-4V387l52-6.9v39.1h0c8.94-29.71,26.48-40.76,44.22-40.76A32.38,32.38,0,0,1,369.05,387.6Z"/>
        <path class="cls-1" d="M543.66,458.71c0,48.5-34,80.75-77.12,80.75s-77.12-32.25-77.12-80.75,34-80.75,77.12-80.75S543.66,410.16,543.66,458.71Zm-35.13,0c0-43.48-15.55-70.61-42-70.61s-41.64,27.13-41.64,70.61,15.2,70.61,41.64,70.61S508.53,502.14,508.53,458.71Z"/>
        <path class="cls-1" d="M709.58,511.5a73.53,73.53,0,0,1-61.26,28.83c-43.05,0-76.23-32.49-76.23-81.69,0-47.8,36.09-81,77.68-81,16.07,0,30.63,2.21,42.65,10.57l4.75-10h8.06l-2.2,47h-9.51c-4.36-23.32-17.87-37.19-41.2-37.19-27.73,0-45.6,27-45.6,67.88s21.53,69.27,49.26,69.27a54.72,54.72,0,0,0,45.6-22.27Z"/>
        <path class="cls-1" d="M874.52,447.2H769.87c-.35,2.89-.35,7.61-.35,9.94,0,38.37,19.88,67.34,48.5,67.34A55.15,55.15,0,0,0,864.38,502l8,8.35a74.15,74.15,0,0,1-60.82,29c-44.72,0-76.38-32.59-76.38-80.75s35.09-80.75,76.73-80.75c39.75,0,62.66,24.6,62.66,62.67Zm-32.9-10c0-23.55-5.82-48.89-31.91-48.89-21.71,0-35.48,22.81-38.36,48.89Z"/>
        <path class="cls-1" d="M1024.05,387.6,1014.22,414c-7.51-4.95-23.63-12.63-27.56-12.63-16.12,0-26.14,22-26.14,52v71.13l34,2.87v7.92h-89v-8l23-2.88V399l-23-4V387l52-6.9v39.1h1c8.94-29.71,26.48-40.76,44.22-40.76A32.61,32.61,0,0,1,1024.05,387.6Z"/>
      </g>
    </g>
  </g>
</svg>
